# xmcd
#
# Track frame offsets:
#	150
#	18197
#	31310
#	49842
#	67422
#	84687
#	97482
#	110717
#	127930
#	143110
#	160445
#	171015
#	189892
#	203907
#	218627
#	234222
#	248550
#
# Disc length: 3522
#
# Revision: 2
# Processed by: cddbd v1.5.1PL0 Copyright (c) Steve Scherf et al.
# Submitted via: dBpowerAMP V4.0
# Normalized: r0:TDELIM( - ),TSWAP
#
DISCID=ee0dc011
DTITLE=Various Artist - Country's Most Wanted
DYEAR=1900
DGENRE=Country
TTITLE0=Vince Gill - I Still Believe In You
TTITLE1=Brooks and Dunn - My Next Broken Heart
TTITLE2=Trisha Yearwood - She's In Love With The Boy
TTITLE3=Reba McEntire - Is There Life Out There
TTITLE4=The Mavericks - Here Comes The Rain
TTITLE5=Alabama - I'm In A Hurry and Don't Know Why
TTITLE6=The Wheel - I Fell In Love
TTITLE7=James Blundell - This Road
TTITLE8=George Strait - Check Yes Or No
TTITLE9=Daniel O'Donnell and Mary Duff - Timeless
TTITLE10=The Dead Ringer Band - Australian Son
TTITLE11=The Crosby Sister and Russell Morris - Wings Of An Eagle
TTITLE12=Clint Black - A Better Man
TTITLE13=Shanley Dell - Rear View Mirrors
TTITLE14=The Bellamy Brothers - Redneck Girl
TTITLE15=Wylie and The Wild West Show - Hey Maria
TTITLE16=Hal Ketchum - Tonight We Just Might Fall In Love Again
EXTD=Jenni
EXTT0=
EXTT1=
EXTT2=
EXTT3=
EXTT4=
EXTT5=
EXTT6=
EXTT7=
EXTT8=
EXTT9=
EXTT10=
EXTT11=
EXTT12=
EXTT13=
EXTT14=
EXTT15=
EXTT16=
PLAYORDER=
